{
  "accessors": [
    {
      "bufferView": 1,
      "componentType": 5126,
      "count": 16,
      "max": [
        0.82833999395370483,
        0.81415998935699463,
        185.13229370117188
      ],
      "min": [
        -0.82833999395370483,
        -0.81415998935699463,
        28.26848030090332
      ],
      "type": "VEC3"
    },
    {
      "bufferView": 1,
      "byteOffset": 192,
      "componentType": 5126,
      "count": 16,
      "max": [
        0.71176975965499878,
        0.71106898784637451,
        0.60907834768295288
      ],
      "min": [
        -0.71176433563232422,
        -0.71063119173049927,
        -0.6035425066947937
      ],
      "type": "VEC3"
    },
    {
      "bufferView": 0,
      "componentType": 5125,
      "count": 84,
      "max": [
        15
      ],
      "min": [
        0
      ],
      "type": "SCALAR"
    },
    {
      "bufferView": 1,
      "byteOffset": 384,
      "componentType": 5126,
      "count": 16,
      "max": [
        1,
        1,
        1
      ],
      "min": [
        -1,
        -1,
        -1
      ],
      "type": "VEC3"
    },
    {
      "bufferView": 1,
      "byteOffset": 576,
      "componentType": 5126,
      "count": 16,
      "max": [
        0.71729379892349243,
        0.71729379892349243,
        0.6302521824836731
      ],
      "min": [
        -0.71729379892349243,
        -0.71729379892349243,
        -0.6302521824836731
      ],
      "type": "VEC3"
    },
    {
      "bufferView": 0,
      "byteOffset": 336,
      "componentType": 5125,
      "count": 84,
      "max": [
        15
      ],
      "min": [
        0
      ],
      "type": "SCALAR"
    },
    {
      "bufferView": 1,
      "byteOffset": 768,
      "componentType": 5126,
      "count": 64,
      "max": [
        1,
        1,
        1
      ],
      "min": [
        -1,
        -1,
        -1
      ],
      "type": "VEC3"
    },
    {
      "bufferView": 1,
      "byteOffset": 1536,
      "componentType": 5126,
      "count": 64,
      "max": [
        0.72788256406784058,
        0.72788256406784058,
        0.68571722507476807
      ],
      "min": [
        -0.72788256406784058,
        -0.72788256406784058,
        -0.68571722507476807
      ],
      "type": "VEC3"
    },
    {
      "bufferView": 0,
      "byteOffset": 672,
      "componentType": 5125,
      "count": 372,
      "max": [
        63
      ],
      "min": [
        0
      ],
      "type": "SCALAR"
    },
    {
      "bufferView": 1,
      "byteOffset": 2304,
      "componentType": 5126,
      "count": 96,
      "max": [
        1.1281499862670898,
        1.1281499862670898,
        1
      ],
      "min": [
        -1.1281499862670898,
        -1.1281499862670898,
        -1
      ],
      "type": "VEC3"
    },
    {
      "bufferView": 1,
      "byteOffset": 3456,
      "componentType": 5126,
      "count": 96,
      "max": [
        0.99863094091415405,
        0.99856787919998169,
        0.7562059760093689
      ],
      "min": [
        -0.99850165843963623,
        -0.99856632947921753,
        -0.71900486946105957
      ],
      "type": "VEC3"
    },
    {
      "bufferView": 0,
      "byteOffset": 2160,
      "componentType": 5125,
      "count": 564,
      "max": [
        95
      ],
      "min": [
        0
      ],
      "type": "SCALAR"
    },
    {
      "bufferView": 1,
      "byteOffset": 4608,
      "componentType": 5126,
      "count": 254,
      "max": [
        1.0460799932479858,
        1.0456299781799316,
        2.6296100616455078
      ],
      "min": [
        -1.0451699495315552,
        -1.0456299781799316,
        -1
      ],
      "type": "VEC3"
    },
    {
      "bufferView": 1,
      "byteOffset": 7656,
      "componentType": 5126,
      "count": 254,
      "max": [
        0.9999658465385437,
        0.99999910593032837,
        0.98442709445953369
      ],
      "min": [
        -0.99989277124404907,
        -0.99999910593032837,
        -0.95649212598800659
      ],
      "type": "VEC3"
    },
    {
      "bufferView": 0,
      "byteOffset": 4416,
      "componentType": 5125,
      "count": 1320,
      "max": [
        253
      ],
      "min": [
        0
      ],
      "type": "SCALAR"
    },
    {
      "bufferView": 1,
      "byteOffset": 10704,
      "componentType": 5126,
      "count": 32,
      "max": [
        1,
        1,
        1
      ],
      "min": [
        -1,
        -1,
        -1
      ],
      "type": "VEC3"
    },
    {
      "bufferView": 1,
      "byteOffset": 11088,
      "componentType": 5126,
      "count": 32,
      "max": [
        0.89392971992492676,
        0.42648082971572876,
        0.89408785104751587
      ],
      "min": [
        -0.8918951153755188,
        -0.41650816798210144,
        -0.89387673139572144
      ],
      "type": "VEC3"
    },
    {
      "bufferView": 0,
      "byteOffset": 9696,
      "componentType": 5125,
      "count": 180,
      "max": [
        31
      ],
      "min": [
        0
      ],
      "type": "SCALAR"
    },
    {
      "bufferView": 1,
      "byteOffset": 11472,
      "componentType": 5126,
      "count": 254,
      "max": [
        1.0460799932479858,
        1.0456299781799316,
        2.6296100616455078
      ],
      "min": [
        -1.0451699495315552,
        -1.0456299781799316,
        -1
      ],
      "type": "VEC3"
    },
    {
      "bufferView": 1,
      "byteOffset": 14520,
      "componentType": 5126,
      "count": 254,
      "max": [
        0.9999658465385437,
        0.99999910593032837,
        0.98442709445953369
      ],
      "min": [
        -0.99989277124404907,
        -0.99999910593032837,
        -0.95649212598800659
      ],
      "type": "VEC3"
    },
    {
      "bufferView": 0,
      "byteOffset": 10416,
      "componentType": 5125,
      "count": 1320,
      "max": [
        253
      ],
      "min": [
        0
      ],
      "type": "SCALAR"
    },
    {
      "bufferView": 1,
      "byteOffset": 17568,
      "componentType": 5126,
      "count": 32,
      "max": [
        1,
        1,
        1
      ],
      "min": [
        -1,
        -1,
        -1
      ],
      "type": "VEC3"
    },
    {
      "bufferView": 1,
      "byteOffset": 17952,
      "componentType": 5126,
      "count": 32,
      "max": [
        0.89392971992492676,
        0.42648082971572876,
        0.89408785104751587
      ],
      "min": [
        -0.8918951153755188,
        -0.41650816798210144,
        -0.89387673139572144
      ],
      "type": "VEC3"
    },
    {
      "bufferView": 0,
      "byteOffset": 15696,
      "componentType": 5125,
      "count": 180,
      "max": [
        31
      ],
      "min": [
        0
      ],
      "type": "SCALAR"
    },
    {
      "bufferView": 1,
      "byteOffset": 18336,
      "componentType": 5126,
      "count": 64,
      "max": [
        1,
        1,
        1.2392200231552124
      ],
      "min": [
        -1,
        -0.47925999760627747,
        -22.120119094848633
      ],
      "type": "VEC3"
    },
    {
      "bufferView": 1,
      "byteOffset": 19104,
      "componentType": 5126,
      "count": 64,
      "max": [
        0.90707767009735107,
        0.99944931268692017,
        0.87183129787445068
      ],
      "min": [
        -0.88089483976364136,
        -0.9992871880531311,
        -0.97390389442443848
      ],
      "type": "VEC3"
    },
    {
      "bufferView": 0,
      "byteOffset": 16416,
      "componentType": 5125,
      "count": 372,
      "max": [
        63
      ],
      "min": [
        0
      ],
      "type": "SCALAR"
    },
    {
      "bufferView": 1,
      "byteOffset": 19872,
      "componentType": 5126,
      "count": 64,
      "max": [
        1,
        1,
        1.2392200231552124
      ],
      "min": [
        -1,
        -0.47925999760627747,
        -21.576120376586914
      ],
      "type": "VEC3"
    },
    {
      "bufferView": 1,
      "byteOffset": 20640,
      "componentType": 5126,
      "count": 64,
      "max": [
        0.90707767009735107,
        0.99944227933883667,
        0.87183129787445068
      ],
      "min": [
        -0.88089483976364136,
        -0.99929767847061157,
        -0.97380924224853516
      ],
      "type": "VEC3"
    },
    {
      "bufferView": 0,
      "byteOffset": 17904,
      "componentType": 5125,
      "count": 372,
      "max": [
        63
      ],
      "min": [
        0
      ],
      "type": "SCALAR"
    },
    {
      "bufferView": 1,
      "byteOffset": 21408,
      "componentType": 5126,
      "count": 135,
      "max": [
        1.0460799932479858,
        0,
        1.0298700332641602
      ],
      "min": [
        -1.0451699495315552,
        -1.0456299781799316,
        -1
      ],
      "type": "VEC3"
    },
    {
      "bufferView": 1,
      "byteOffset": 23028,
      "componentType": 5126,
      "count": 135,
      "max": [
        0.99499982595443726,
        0.99925202131271362,
        0.97830861806869507
      ],
      "min": [
        -0.99501752853393555,
        -0.99999910593032837,
        -0.95649212598800659
      ],
      "type": "VEC3"
    },
    {
      "bufferView": 0,
      "byteOffset": 19392,
      "componentType": 5125,
      "count": 660,
      "max": [
        134
      ],
      "min": [
        0
      ],
      "type": "SCALAR"
    },
    {
      "bufferView": 1,
      "byteOffset": 24648,
      "componentType": 5126,
      "count": 320,
      "max": [
        1.6487100124359131,
        1.6255300045013428,
        1
      ],
      "min": [
        -1.6144599914550781,
        -1.6062999963760376,
        -1.2175400257110596
      ],
      "type": "VEC3"
    },
    {
      "bufferView": 1,
      "byteOffset": 28488,
      "componentType": 5126,
      "count": 320,
      "max": [
        0.99468410015106201,
        0.99521023035049438,
        0.7506643533706665
      ],
      "min": [
        -0.99911272525787354,
        -0.99950027465820312,
        -0.98899012804031372
      ],
      "type": "VEC3"
    },
    {
      "bufferView": 0,
      "byteOffset": 22032,
      "componentType": 5125,
      "count": 1908,
      "max": [
        319
      ],
      "min": [
        0
      ],
      "type": "SCALAR"
    }
  ],
  "asset": {
    "extras": {
      "author": "Guy who likes swords (https://sketchfab.com/sworddesigner)",
      "license": "CC-BY-4.0 (http://creativecommons.org/licenses/by/4.0/)",
      "source": "https://sketchfab.com/models/67b31f6a1190461d81685d2f8121e3f5",
      "title": "Swept Hilt Rapier"
    },
    "generator": "Sketchfab-3.18.7",
    "version": "2.0"
  },
  "bufferViews": [
    {
      "buffer": 0,
      "byteLength": 29664,
      "byteOffset": 0,
      "name": "floatBufferViews",
      "target": 34963
    },
    {
      "buffer": 0,
      "byteLength": 32328,
      "byteOffset": 29664,
      "byteStride": 12,
      "name": "floatBufferViews",
      "target": 34962
    }
  ],
  "buffers": [
    {
      "byteLength": 61992,
      "uri": "scene.bin"
    }
  ],
  "materials": [
    {
      "doubleSided": true,
      "emissiveFactor": [
        0,
        0,
        0
      ],
      "name": "Material.006",
      "pbrMetallicRoughness": {
        "baseColorFactor": [
          0.68595623969999997,
          0.68595623969999997,
          0.68595623969999997,
          1
        ],
        "metallicFactor": 0.76391006100000003,
        "roughnessFactor": 0.36413871949999999
      }
    },
    {
      "doubleSided": true,
      "emissiveFactor": [
        0,
        0,
        0
      ],
      "name": "Material.004",
      "pbrMetallicRoughness": {
        "baseColorFactor": [
          0.69819176199999999,
          0.69819176199999999,
          0.69819176199999999,
          1
        ],
        "metallicFactor": 0.81269054880000002,
        "roughnessFactor": 0.32145579270000002
      }
    },
    {
      "doubleSided": true,
      "emissiveFactor": [
        0,
        0,
        0
      ],
      "name": "Material.005",
      "pbrMetallicRoughness": {
        "baseColorFactor": [
          0.71055346730000002,
          0.71055346730000002,
          0.71055346730000002,
          1
        ],
        "metallicFactor": 0.82488567069999996,
        "roughnessFactor": 0.26048018289999997
      }
    },
    {
      "doubleSided": true,
      "emissiveFactor": [
        0,
        0,
        0
      ],
      "name": "Material.003",
      "pbrMetallicRoughness": {
        "baseColorFactor": [
          0,
          0,
          0,
          1
        ],
        "metallicFactor": 0,
        "roughnessFactor": 0.59999999999999998
      }
    },
    {
      "doubleSided": true,
      "emissiveFactor": [
        0,
        0,
        0
      ],
      "name": "Material.002",
      "pbrMetallicRoughness": {
        "baseColorFactor": [
          0.68595623969999997,
          0.68595623969999997,
          0.68595623969999997,
          1
        ],
        "metallicFactor": 0,
        "roughnessFactor": 0.59999999999999998
      }
    },
    {
      "doubleSided": true,
      "emissiveFactor": [
        0,
        0,
        0
      ],
      "name": "Material.001",
      "pbrMetallicRoughness": {
        "baseColorFactor": [
          0.40395232920000002,
          0.39216376670000003,
          0.39216376670000003,
          1
        ],
        "metallicFactor": 0.42244664630000001,
        "roughnessFactor": 1
      }
    },
    {
      "doubleSided": true,
      "emissiveFactor": [
        0,
        0,
        0
      ],
      "name": "Material",
      "pbrMetallicRoughness": {
        "baseColorFactor": [
          0.8275568485,
          0.8275568485,
          0.8275568485,
          1
        ],
        "metallicFactor": 0.4834222561,
        "roughnessFactor": 0.40000000000000002
      }
    }
  ],
  "meshes": [
    {
      "name": "Cube_0",
      "primitives": [
        {
          "attributes": {
            "NORMAL": 1,
            "POSITION": 0
          },
          "indices": 2,
          "material": 6,
          "mode": 4
        }
      ]
    },
    {
      "name": "Cube.001_0",
      "primitives": [
        {
          "attributes": {
            "NORMAL": 4,
            "POSITION": 3
          },
          "indices": 5,
          "material": 5,
          "mode": 4
        }
      ]
    },
    {
      "name": "Cylinder_0",
      "primitives": [
        {
          "attributes": {
            "NORMAL": 7,
            "POSITION": 6
          },
          "indices": 8,
          "material": 4,
          "mode": 4
        }
      ]
    },
    {
      "name": "Cylinder.001_0",
      "primitives": [
        {
          "attributes": {
            "NORMAL": 10,
            "POSITION": 9
          },
          "indices": 11,
          "material": 3,
          "mode": 4
        }
      ]
    },
    {
      "name": "Cylinder.002_0",
      "primitives": [
        {
          "attributes": {
            "NORMAL": 13,
            "POSITION": 12
          },
          "indices": 14,
          "material": 1,
          "mode": 4
        }
      ]
    },
    {
      "name": "Cube.002_0",
      "primitives": [
        {
          "attributes": {
            "NORMAL": 16,
            "POSITION": 15
          },
          "indices": 17,
          "material": 2,
          "mode": 4
        }
      ]
    },
    {
      "name": "Cylinder.003_0",
      "primitives": [
        {
          "attributes": {
            "NORMAL": 19,
            "POSITION": 18
          },
          "indices": 20,
          "material": 1,
          "mode": 4
        }
      ]
    },
    {
      "name": "Cube.003_0",
      "primitives": [
        {
          "attributes": {
            "NORMAL": 22,
            "POSITION": 21
          },
          "indices": 23,
          "material": 2,
          "mode": 4
        }
      ]
    },
    {
      "name": "Cube.004_0",
      "primitives": [
        {
          "attributes": {
            "NORMAL": 25,
            "POSITION": 24
          },
          "indices": 26,
          "material": 2,
          "mode": 4
        }
      ]
    },
    {
      "name": "Cube.005_0",
      "primitives": [
        {
          "attributes": {
            "NORMAL": 28,
            "POSITION": 27
          },
          "indices": 29,
          "material": 2,
          "mode": 4
        }
      ]
    },
    {
      "name": "Cylinder.004_0",
      "primitives": [
        {
          "attributes": {
            "NORMAL": 31,
            "POSITION": 30
          },
          "indices": 32,
          "material": 1,
          "mode": 4
        }
      ]
    },
    {
      "name": "Cylinder.005_0",
      "primitives": [
        {
          "attributes": {
            "NORMAL": 34,
            "POSITION": 33
          },
          "indices": 35,
          "material": 0,
          "mode": 4
        }
      ]
    }
  ],
  "nodes": [
    {
      "children": [
        1
      ],
      "name": "RootNode (gltf orientation matrix)",
      "rotation": [
        -0.70710678118654746,
        -0,
        -0,
        0.70710678118654757
      ]
    },
    {
      "children": [
        2
      ],
      "name": "RootNode (model correction matrix)"
    },
    {
      "children": [
        3,
        5,
        7,
        9,
        11,
        13,
        15,
        17,
        19,
        21,
        23,
        25,
        27
      ],
      "name": "Root"
    },
    {
      "children": [
        4
      ],
      "matrix": [
        -0.29086000000000006,
        0.95517000000000007,
        -0.05519000000000001,
        0,
        -0.77110000000000001,
        -0.19988000000000003,
        0.60452000000000006,
        0,
        0.56639000000000006,
        0.21839000000000003,
        0.7946700000000001,
        0,
        47.132000000000005,
        -8.7861199999999986,
        14.812200000000001,
        1
      ],
      "name": "Lamp"
    },
    {
      "name": "Lamp"
    },
    {
      "children": [
        6
      ],
      "matrix": [
        -0.81518000000000002,
        0.85732000000000008,
        0,
        0,
        -0.87020000000000008,
        -0.82743,
        0,
        0,
        0,
        0,
        0.64735000000000009,
        0,
        0,
        0,
        -10.914440000000001,
        1
      ],
      "name": "Cube"
    },
    {
      "mesh": 0,
      "name": "Cube_0"
    },
    {
      "children": [
        8
      ],
      "matrix": [
        0.37086000000000008,
        0,
        0,
        0,
        0,
        0.86343000000000003,
        0,
        0,
        0,
        0,
        3.0378099999999999,
        0,
        0.013520000000000003,
        -0.029720000000000003,
        5.8278999999999987,
        1
      ],
      "name": "Cube.001"
    },
    {
      "mesh": 1,
      "name": "Cube.001_0"
    },
    {
      "children": [
        10
      ],
      "matrix": [
        0.73469000000000018,
        0,
        0,
        0,
        0,
        1,
        0,
        0,
        0,
        0,
        0.81514000000000009,
        0,
        -0.011750000000000003,
        -0.015600000000000003,
        3.52969,
        1
      ],
      "name": "Cylinder"
    },
    {
      "mesh": 2,
      "name": "Cylinder_0"
    },
    {
      "children": [
        12
      ],
      "matrix": [
        0.75568000000000013,
        0,
        0,
        0,
        0,
        1,
        0,
        0,
        0,
        0,
        8.359530000000003,
        0,
        -0.015320000000000002,
        0.0019400000000000008,
        -5.6064499999999997,
        1
      ],
      "name": "Cylinder.001"
    },
    {
      "mesh": 3,
      "name": "Cylinder.001_0"
    },
    {
      "children": [
        14
      ],
      "matrix": [
        4.5221099999999987,
        0,
        0,
        0,
        0,
        6.7544699999999995,
        0,
        0,
        0,
        0,
        0.59066000000000007,
        0,
        0.065750000000000017,
        0.14809000000000003,
        2.8375300000000001,
        1
      ],
      "name": "Cylinder.002"
    },
    {
      "mesh": 4,
      "name": "Cylinder.002_0"
    },
    {
      "children": [
        16
      ],
      "matrix": [
        0.7040900000000001,
        0,
        0,
        0,
        0,
        13.469830000000002,
        0,
        0,
        0,
        0,
        0.7040900000000001,
        0,
        0.030640000000000004,
        -0.23066,
        3.1344799999999999,
        1
      ],
      "name": "Cube.002"
    },
    {
      "mesh": 5,
      "name": "Cube.002_0"
    },
    {
      "children": [
        18
      ],
      "matrix": [
        3.4094199999999999,
        0,
        0,
        0,
        0,
        5.0924899999999997,
        0,
        0,
        0,
        0,
        0.44533000000000006,
        0,
        -0.1706,
        0.045090000000000012,
        4.8737700000000004,
        1
      ],
      "name": "Cylinder.003"
    },
    {
      "mesh": 6,
      "name": "Cylinder.003_0"
    },
    {
      "children": [
        20
      ],
      "matrix": [
        0.48867000000000005,
        0,
        0,
        0,
        0,
        4.6978599999999995,
        0,
        0,
        0,
        0,
        0.42280000000000006,
        0,
        0.0085100000000000019,
        -0.088430000000000022,
        4.7650600000000001,
        1
      ],
      "name": "Cube.003"
    },
    {
      "mesh": 7,
      "name": "Cube.003_0"
    },
    {
      "children": [
        22
      ],
      "matrix": [
        0.48588000000000009,
        0,
        -0.052180000000000011,
        0,
        1.0859799999999999,
        3.3935300000000002,
        10.112690000000001,
        0,
        0.015050000000000003,
        -0.42257000000000006,
        0.14018,
        0,
        0.94879000000000013,
        -8.5354300000000016,
        -7.2573799999999995,
        1
      ],
      "name": "Cube.004"
    },
    {
      "mesh": 8,
      "name": "Cube.004_0"
    },
    {
      "children": [
        24
      ],
      "matrix": [
        0.48680000000000007,
        0,
        0.042710000000000012,
        0,
        -0.88886000000000009,
        3.3935300000000002,
        10.131919999999997,
        0,
        -0.012320000000000001,
        -0.42257000000000006,
        0.14045000000000002,
        0,
        -0.55952999999999997,
        -8.5195800000000013,
        -7.2364300000000004,
        1
      ],
      "name": "Cube.005"
    },
    {
      "mesh": 9,
      "name": "Cube.005_0"
    },
    {
      "children": [
        26
      ],
      "matrix": [
        4.0594400000000004,
        0,
        0,
        0,
        0,
        8.5795000000000012,
        6.3096300000000003,
        0,
        0,
        -0.40848000000000007,
        0.55544000000000004,
        0,
        0.063740000000000019,
        0.44051000000000007,
        2.8528199999999995,
        1
      ],
      "name": "Cylinder.004"
    },
    {
      "mesh": 10,
      "name": "Cylinder.004_0"
    },
    {
      "children": [
        28
      ],
      "matrix": [
        1.06843,
        0,
        0,
        0,
        0,
        1.06843,
        0,
        0,
        0,
        0,
        2.2529599999999999,
        0,
        -0.011510000000000003,
        0.017050000000000006,
        -13.136279999999999,
        1
      ],
      "name": "Cylinder.005"
    },
    {
      "mesh": 11,
      "name": "Cylinder.005_0"
    }
  ],
  "scene": 0,
  "scenes": [
    {
      "name": "OSG_Scene",
      "nodes": [
        0
      ]
    }
  ]
}

