{
  "accessors": [
    {
      "bufferView": 2,
      "componentType": 5126,
      "count": 64,
      "max": [
        0.13765780627727509,
        1.1742655038833618,
        0.24260081350803375
      ],
      "min": [
        -0.13753153383731842,
        -3.2635493278503418,
        -0.24259792268276215
      ],
      "type": "VEC3"
    },
    {
      "bufferView": 2,
      "byteOffset": 768,
      "componentType": 5126,
      "count": 64,
      "max": [
        0.99999678134918213,
        0.6835138201713562,
        0.99995040893554688
      ],
      "min": [
        -0.99999666213989258,
        -0.50680935382843018,
        -0.99995040893554688
      ],
      "type": "VEC3"
    },
    {
      "bufferView": 1,
      "componentType": 5126,
      "count": 64,
      "max": [
        0.68536311388015747,
        0.99953138828277588
      ],
      "min": [
        0.38892227411270142,
        0.42782619595527649
      ],
      "type": "VEC2"
    },
    {
      "bufferView": 0,
      "componentType": 5125,
      "count": 288,
      "max": [
        63
      ],
      "min": [
        0
      ],
      "type": "SCALAR"
    },
    {
      "bufferView": 2,
      "byteOffset": 1536,
      "componentType": 5126,
      "count": 168,
      "max": [
        0.21115651726722717,
        1.3383034467697144,
        0.21118786931037903
      ],
      "min": [
        -0.21113263070583344,
        -3.9146809577941895,
        -0.21110133826732635
      ],
      "type": "VEC3"
    },
    {
      "bufferView": 2,
      "byteOffset": 3552,
      "componentType": 5126,
      "count": 168,
      "max": [
        0.98053842782974243,
        0.70710676908493042,
        0.99611097574234009
      ],
      "min": [
        -0.98050075769424438,
        -0.96980071067810059,
        -0.99608391523361206
      ],
      "type": "VEC3"
    },
    {
      "bufferView": 1,
      "byteOffset": 512,
      "componentType": 5126,
      "count": 168,
      "max": [
        0.99776721000671387,
        0.12822568416595459
      ],
      "min": [
        0.73962914943695068,
        0.0010774660622701049
      ],
      "type": "VEC2"
    },
    {
      "bufferView": 0,
      "byteOffset": 1152,
      "componentType": 5125,
      "count": 516,
      "max": [
        167
      ],
      "min": [
        0
      ],
      "type": "SCALAR"
    },
    {
      "bufferView": 2,
      "byteOffset": 5568,
      "componentType": 5126,
      "count": 8526,
      "max": [
        0.93506640195846558,
        1.5625702142715454,
        2.5321948528289795
      ],
      "min": [
        -0.93506640195846558,
        -1.0373539924621582,
        -2.5321948528289795
      ],
      "type": "VEC3"
    },
    {
      "bufferView": 2,
      "byteOffset": 107880,
      "componentType": 5126,
      "count": 8526,
      "max": [
        1,
        1,
        1
      ],
      "min": [
        -1,
        -1,
        -1
      ],
      "type": "VEC3"
    },
    {
      "bufferView": 1,
      "byteOffset": 1856,
      "componentType": 5126,
      "count": 8526,
      "max": [
        0.66320145130157471,
        0.41668182611465454
      ],
      "min": [
        0.40314015746116638,
        3.8077123463153839e-06
      ],
      "type": "VEC2"
    },
    {
      "bufferView": 0,
      "byteOffset": 3216,
      "componentType": 5125,
      "count": 36798,
      "max": [
        8525
      ],
      "min": [
        0
      ],
      "type": "SCALAR"
    },
    {
      "bufferView": 2,
      "byteOffset": 210192,
      "componentType": 5126,
      "count": 440,
      "max": [
        0.060642242431640625,
        14.317192077636719,
        0.68609118461608887
      ],
      "min": [
        -0.060642242431640625,
        1.3931320905685425,
        -0.68609118461608887
      ],
      "type": "VEC3"
    },
    {
      "bufferView": 2,
      "byteOffset": 215472,
      "componentType": 5126,
      "count": 440,
      "max": [
        1,
        1,
        0.9999929666519165
      ],
      "min": [
        -1,
        -1,
        -0.9999929666519165
      ],
      "type": "VEC3"
    },
    {
      "bufferView": 1,
      "byteOffset": 70064,
      "componentType": 5126,
      "count": 440,
      "max": [
        0.12693040072917938,
        1.0000021457672119
      ],
      "min": [
        0.0022974312305450439,
        2.1159648895263672e-06
      ],
      "type": "VEC2"
    },
    {
      "bufferView": 0,
      "byteOffset": 150408,
      "componentType": 5125,
      "count": 1836,
      "max": [
        439
      ],
      "min": [
        0
      ],
      "type": "SCALAR"
    }
  ],
  "asset": {
    "extras": {
      "author": "BryceBarry (https://sketchfab.com/BryceBarry)",
      "license": "CC-BY-4.0 (http://creativecommons.org/licenses/by/4.0/)",
      "source": "https://sketchfab.com/3d-models/zweihander-7b3fbc8d7e4d4ba384b08b754687b2da",
      "title": "Zweihander"
    },
    "generator": "Sketchfab-9.42.0",
    "version": "2.0"
  },
  "bufferViews": [
    {
      "buffer": 0,
      "byteLength": 157752,
      "byteOffset": 0,
      "name": "floatBufferViews",
      "target": 34963
    },
    {
      "buffer": 0,
      "byteLength": 73584,
      "byteOffset": 157752,
      "byteStride": 8,
      "name": "floatBufferViews",
      "target": 34962
    },
    {
      "buffer": 0,
      "byteLength": 220752,
      "byteOffset": 231336,
      "byteStride": 12,
      "name": "floatBufferViews",
      "target": 34962
    }
  ],
  "buffers": [
    {
      "byteLength": 452088,
      "uri": "scene.bin"
    }
  ],
  "materials": [
    {
      "doubleSided": true,
      "emissiveFactor": [
        0,
        0,
        0
      ],
      "name": "Material.002",
      "pbrMetallicRoughness": {
        "baseColorFactor": [
          0.039679499999999999,
          0.0042401699999999997,
          0.0018268799999999999,
          1
        ],
        "metallicFactor": 0,
        "roughnessFactor": 1
      }
    },
    {
      "doubleSided": true,
      "emissiveFactor": [
        0,
        0,
        0
      ],
      "name": "Material.003",
      "pbrMetallicRoughness": {
        "baseColorFactor": [
          0.068478200000000003,
          0.0822827,
          0.090841699999999997,
          1
        ],
        "metallicFactor": 1,
        "roughnessFactor": 0.40000000000000002
      }
    },
    {
      "doubleSided": true,
      "emissiveFactor": [
        0,
        0,
        0
      ],
      "name": "Material.001",
      "pbrMetallicRoughness": {
        "baseColorFactor": [
          0.095307500000000003,
          0.130137,
          0.17788799999999999,
          1
        ],
        "metallicFactor": 1,
        "roughnessFactor": 0.40000000000000002
      }
    },
    {
      "doubleSided": true,
      "emissiveFactor": [
        0,
        0,
        0
      ],
      "name": "Material.004",
      "pbrMetallicRoughness": {
        "baseColorFactor": [
          0.45148500000000003,
          0.49110599999999999,
          0.496923,
          1
        ],
        "metallicFactor": 1,
        "roughnessFactor": 0.29999999999999999
      }
    }
  ],
  "meshes": [
    {
      "primitives": [
        {
          "attributes": {
            "NORMAL": 1,
            "POSITION": 0,
            "TEXCOORD_0": 2
          },
          "indices": 3,
          "material": 0,
          "mode": 4
        }
      ]
    },
    {
      "primitives": [
        {
          "attributes": {
            "NORMAL": 5,
            "POSITION": 4,
            "TEXCOORD_0": 6
          },
          "indices": 7,
          "material": 1,
          "mode": 4
        }
      ]
    },
    {
      "primitives": [
        {
          "attributes": {
            "NORMAL": 9,
            "POSITION": 8,
            "TEXCOORD_0": 10
          },
          "indices": 11,
          "material": 2,
          "mode": 4
        }
      ]
    },
    {
      "primitives": [
        {
          "attributes": {
            "NORMAL": 13,
            "POSITION": 12,
            "TEXCOORD_0": 14
          },
          "indices": 15,
          "material": 3,
          "mode": 4
        }
      ]
    }
  ],
  "nodes": [
    {
      "children": [
        1
      ],
      "name": "RootNode (gltf orientation matrix)",
      "rotation": [
        -0.70710678118654746,
        -0,
        -0,
        0.70710678118654757
      ]
    },
    {
      "children": [
        2
      ],
      "name": "RootNode (model correction matrix)"
    },
    {
      "children": [
        3
      ],
      "name": "root"
    },
    {
      "children": [
        4
      ],
      "matrix": [
        1,
        0,
        0,
        0,
        0,
        2.2204460492503131e-16,
        1,
        0,
        0,
        -1,
        2.2204460492503131e-16,
        0,
        0,
        0,
        0,
        1
      ],
      "name": "GLTF_SceneRootNode"
    },
    {
      "children": [
        5,
        6,
        7,
        8
      ],
      "name": "zweinhander_0"
    },
    {
      "mesh": 0,
      "name": ""
    },
    {
      "mesh": 1,
      "name": ""
    },
    {
      "mesh": 2,
      "name": ""
    },
    {
      "mesh": 3,
      "name": ""
    }
  ],
  "scene": 0,
  "scenes": [
    {
      "name": "OSG_Scene",
      "nodes": [
        0
      ]
    }
  ]
}

