{
  "accessors": [
    {
      "bufferView": 2,
      "componentType": 5126,
      "count": 34563,
      "max": [
        0.17465980350971222,
        0.2798921763896942,
        0.21634002029895782
      ],
      "min": [
        -0.3286260962486267,
        -0.6822305917739868,
        -0.27585333585739136
      ],
      "type": "VEC3"
    },
    {
      "bufferView": 2,
      "byteOffset": 414756,
      "componentType": 5126,
      "count": 34563,
      "max": [
        0.9999904632568359,
        0.9999980330467224,
        0.9999944567680359
      ],
      "min": [
        -0.9999970197677612,
        -0.9999948143959045,
        -0.9999990463256836
      ],
      "type": "VEC3"
    },
    {
      "bufferView": 1,
      "componentType": 5126,
      "count": 34563,
      "max": [
        0.9953529834747314,
        0.9999470114707947
      ],
      "min": [
        7.733719940006267e-06,
        0.0018502899911254644
      ],
      "type": "VEC2"
    },
    {
      "bufferView": 0,
      "componentType": 5125,
      "count": 184194,
      "type": "SCALAR"
    },
    {
      "bufferView": 2,
      "byteOffset": 829512,
      "componentType": 5126,
      "count": 1902,
      "max": [
        0.17465980350971222,
        0.2798921763896942,
        0.21634002029895782
      ],
      "min": [
        -0.317949503660202,
        0.2788904011249542,
        -0.27585333585739136
      ],
      "type": "VEC3"
    },
    {
      "bufferView": 2,
      "byteOffset": 852336,
      "componentType": 5126,
      "count": 1902,
      "max": [
        0.9961989521980286,
        0.9999980926513672,
        0.9998361468315125
      ],
      "min": [
        -0.9999083280563354,
        -0.9713014364242554,
        -0.9999917149543762
      ],
      "type": "VEC3"
    },
    {
      "bufferView": 1,
      "byteOffset": 276504,
      "componentType": 5126,
      "count": 1902,
      "max": [
        0.0,
        0.0
      ],
      "min": [
        0.0,
        0.0
      ],
      "type": "VEC2"
    },
    {
      "bufferView": 0,
      "byteOffset": 736776,
      "componentType": 5125,
      "count": 9318,
      "type": "SCALAR"
    }
  ],
  "asset": {
    "extras": {
      "author": "emm (https://sketchfab.com/edemaistre)",
      "license": "CC-BY-4.0 (http://creativecommons.org/licenses/by/4.0/)",
      "source": "https://sketchfab.com/3d-models/day-205-horse-and-the-harrow-statue-1scanday-63eab66000f2463993791b3417aca911",
      "title": "Day 205: Horse and the Harrow Statue - 1scanday"
    },
    "generator": "Sketchfab-11.49.7",
    "version": "2.0"
  },
  "bufferViews": [
    {
      "buffer": 0,
      "byteLength": 774048,
      "name": "floatBufferViews",
      "target": 34963
    },
    {
      "buffer": 0,
      "byteLength": 291720,
      "byteOffset": 774048,
      "byteStride": 8,
      "name": "floatBufferViews",
      "target": 34962
    },
    {
      "buffer": 0,
      "byteLength": 875160,
      "byteOffset": 1065768,
      "byteStride": 12,
      "name": "floatBufferViews",
      "target": 34962
    }
  ],
  "buffers": [
    {
      "byteLength": 1940928,
      "uri": "scene.bin"
    }
  ],
  "extensionsUsed": [
    "KHR_materials_unlit"
  ],
  "images": [
    {
      "uri": "textures/material_1_baseColor.png"
    }
  ],
  "materials": [
    {
      "doubleSided": true,
      "extensions": {
        "KHR_materials_unlit": {}
      },
      "name": "material_1",
      "pbrMetallicRoughness": {
        "baseColorTexture": {
          "index": 0
        },
        "metallicFactor": 0.0
      }
    }
  ],
  "meshes": [
    {
      "name": "Object_0",
      "primitives": [
        {
          "attributes": {
            "NORMAL": 1,
            "POSITION": 0,
            "TEXCOORD_0": 2
          },
          "indices": 3,
          "material": 0,
          "mode": 4
        }
      ]
    },
    {
      "name": "Object_1",
      "primitives": [
        {
          "attributes": {
            "NORMAL": 5,
            "POSITION": 4,
            "TEXCOORD_0": 6
          },
          "indices": 7,
          "material": 0,
          "mode": 4
        }
      ]
    }
  ],
  "nodes": [
    {
      "children": [
        1
      ],
      "matrix": [
        1.0,
        0.0,
        0.0,
        0.0,
        0.0,
        -0.9998977184295654,
        -0.01430033426731847,
        0.0,
        0.0,
        0.01430033426731847,
        -0.9998977184295654,
        0.0,
        0.0,
        -0.23047910630702975,
        0.168538749217987,
        1.0
      ],
      "name": "Sketchfab_model"
    },
    {
      "children": [
        2,
        3
      ],
      "name": "horse5.obj.cleaner.materialmerger.gles"
    },
    {
      "mesh": 0,
      "name": "Object_2"
    },
    {
      "mesh": 1,
      "name": "Object_3"
    }
  ],
  "samplers": [
    {
      "magFilter": 9729,
      "minFilter": 9987,
      "wrapS": 10497,
      "wrapT": 10497
    }
  ],
  "scene": 0,
  "scenes": [
    {
      "name": "Sketchfab_Scene",
      "nodes": [
        0
      ]
    }
  ],
  "textures": [
    {
      "sampler": 0,
      "source": 0
    }
  ]
}
