{
  "accessors": [
    {
      "bufferView": 2,
      "componentType": 5126,
      "count": 3117,
      "max": [
        1.8331599235534668,
        0.5399495363235474,
        1.4278767108917236
      ],
      "min": [
        -1.8331599235534668,
        -0.5399495363235474,
        -2.9754955768585205
      ],
      "type": "VEC3"
    },
    {
      "bufferView": 2,
      "byteOffset": 37404,
      "componentType": 5126,
      "count": 3117,
      "max": [
        1.0,
        1.0,
        1.0
      ],
      "min": [
        -1.0,
        -1.0,
        -1.0
      ],
      "type": "VEC3"
    },
    {
      "bufferView": 1,
      "componentType": 5126,
      "count": 3117,
      "max": [
        1.0,
        1.0
      ],
      "min": [
        0.0,
        0.0
      ],
      "type": "VEC2"
    },
    {
      "bufferView": 0,
      "componentType": 5125,
      "count": 11049,
      "type": "SCALAR"
    },
    {
      "bufferView": 2,
      "byteOffset": 74808,
      "componentType": 5126,
      "count": 570,
      "max": [
        0.5795601010322571,
        0.0935562327504158,
        12.080968856811523
      ],
      "min": [
        -0.5795601010322571,
        -0.09355573356151581,
        0.9338107109069824
      ],
      "type": "VEC3"
    },
    {
      "bufferView": 2,
      "byteOffset": 81648,
      "componentType": 5126,
      "count": 570,
      "max": [
        1.0,
        1.0,
        0.7606658935546875
      ],
      "min": [
        -1.0,
        -1.0,
        -1.0
      ],
      "type": "VEC3"
    },
    {
      "bufferView": 1,
      "byteOffset": 24936,
      "componentType": 5126,
      "count": 570,
      "max": [
        0.875,
        1.0
      ],
      "min": [
        0.0,
        0.0
      ],
      "type": "VEC2"
    },
    {
      "bufferView": 0,
      "byteOffset": 44196,
      "componentType": 5125,
      "count": 1986,
      "type": "SCALAR"
    },
    {
      "bufferView": 2,
      "byteOffset": 88488,
      "componentType": 5126,
      "count": 314,
      "max": [
        0.4265994429588318,
        0.2116837352514267,
        1.4278767108917236
      ],
      "min": [
        -0.4265994429588318,
        -0.21168367564678192,
        0.22172170877456665
      ],
      "type": "VEC3"
    },
    {
      "bufferView": 2,
      "byteOffset": 92256,
      "componentType": 5126,
      "count": 314,
      "max": [
        1.0,
        1.0,
        1.0
      ],
      "min": [
        -1.0,
        -1.0,
        -1.0
      ],
      "type": "VEC3"
    },
    {
      "bufferView": 1,
      "byteOffset": 29496,
      "componentType": 5126,
      "count": 314,
      "max": [
        0.375,
        0.75
      ],
      "min": [
        0.0,
        0.0
      ],
      "type": "VEC2"
    },
    {
      "bufferView": 0,
      "byteOffset": 52140,
      "componentType": 5125,
      "count": 516,
      "type": "SCALAR"
    },
    {
      "bufferView": 2,
      "byteOffset": 96024,
      "componentType": 5126,
      "count": 1252,
      "max": [
        0.23432943224906921,
        0.23432941734790802,
        -0.1800220012664795
      ],
      "min": [
        -0.23432943224906921,
        -0.23432953655719757,
        -2.240737199783325
      ],
      "type": "VEC3"
    },
    {
      "bufferView": 2,
      "byteOffset": 111048,
      "componentType": 5126,
      "count": 1252,
      "max": [
        1.0,
        1.0,
        1.0
      ],
      "min": [
        -1.0,
        -1.0,
        -1.0
      ],
      "type": "VEC3"
    },
    {
      "bufferView": 1,
      "byteOffset": 32008,
      "componentType": 5126,
      "count": 1252,
      "max": [
        1.0,
        1.0
      ],
      "min": [
        0.0,
        0.01000000536441803
      ],
      "type": "VEC2"
    },
    {
      "bufferView": 0,
      "byteOffset": 54204,
      "componentType": 5125,
      "count": 3552,
      "type": "SCALAR"
    },
    {
      "bufferView": 2,
      "byteOffset": 126072,
      "componentType": 5126,
      "count": 225,
      "max": [
        0.4359740614891052,
        0.11382552236318588,
        2.774658203125
      ],
      "min": [
        -0.43597400188446045,
        -0.11382529884576797,
        2.0517420768737793
      ],
      "type": "VEC3"
    },
    {
      "bufferView": 2,
      "byteOffset": 128772,
      "componentType": 5126,
      "count": 225,
      "max": [
        1.0,
        1.0,
        1.0
      ],
      "min": [
        -1.0,
        -1.0,
        -1.0
      ],
      "type": "VEC3"
    },
    {
      "bufferView": 1,
      "byteOffset": 42024,
      "componentType": 5126,
      "count": 225,
      "max": [
        1.0,
        1.0
      ],
      "min": [
        -5.960464477539063e-08,
        0.12999999523162842
      ],
      "type": "VEC2"
    },
    {
      "bufferView": 0,
      "byteOffset": 68412,
      "componentType": 5125,
      "count": 345,
      "type": "SCALAR"
    }
  ],
  "asset": {
    "extras": {
      "author": "GengPls (https://sketchfab.com/GengPls)",
      "license": "CC-BY-4.0 (http://creativecommons.org/licenses/by/4.0/)",
      "source": "https://sketchfab.com/3d-models/master-sword-6935edcafcf44437aeb3345e96be3b6e",
      "title": "Master Sword"
    },
    "generator": "Sketchfab-11.49.0",
    "version": "2.0"
  },
  "bufferViews": [
    {
      "buffer": 0,
      "byteLength": 69792,
      "name": "floatBufferViews",
      "target": 34963
    },
    {
      "buffer": 0,
      "byteLength": 43824,
      "byteOffset": 69792,
      "byteStride": 8,
      "name": "floatBufferViews",
      "target": 34962
    },
    {
      "buffer": 0,
      "byteLength": 131472,
      "byteOffset": 113616,
      "byteStride": 12,
      "name": "floatBufferViews",
      "target": 34962
    }
  ],
  "buffers": [
    {
      "byteLength": 245088,
      "uri": "scene.bin"
    }
  ],
  "materials": [
    {
      "doubleSided": true,
      "name": "PixelMaterial.002",
      "pbrMetallicRoughness": {
        "baseColorFactor": [
          0.0301641,
          0.0235662,
          0.117357,
          1.0
        ],
        "metallicFactor": 0.459091,
        "roughnessFactor": 0.5
      }
    },
    {
      "doubleSided": true,
      "name": "PixelMaterial",
      "pbrMetallicRoughness": {
        "baseColorFactor": [
          0.130137,
          0.520996,
          0.564712,
          1.0
        ],
        "metallicFactor": 0.963636,
        "roughnessFactor": 0.3
      }
    },
    {
      "doubleSided": true,
      "name": "PixelMaterial.003",
      "pbrMetallicRoughness": {
        "baseColorFactor": [
          0.760525,
          0.679543,
          0.223228,
          1.0
        ],
        "roughnessFactor": 0.168182
      }
    },
    {
      "doubleSided": true,
      "name": "PixelMaterial.001",
      "pbrMetallicRoughness": {
        "baseColorFactor": [
          0.0185002,
          0.093059,
          0.0382044,
          1.0
        ],
        "metallicFactor": 0.0
      }
    },
    {
      "doubleSided": true,
      "name": "PixelMaterial.004",
      "pbrMetallicRoughness": {
        "baseColorFactor": [
          0.130137,
          0.520996,
          0.564712,
          1.0
        ],
        "metallicFactor": 0.963636,
        "roughnessFactor": 0.368182
      }
    }
  ],
  "meshes": [
    {
      "name": "Object_0",
      "primitives": [
        {
          "attributes": {
            "NORMAL": 1,
            "POSITION": 0,
            "TEXCOORD_0": 2
          },
          "indices": 3,
          "material": 0,
          "mode": 4
        }
      ]
    },
    {
      "name": "Object_1",
      "primitives": [
        {
          "attributes": {
            "NORMAL": 5,
            "POSITION": 4,
            "TEXCOORD_0": 6
          },
          "indices": 7,
          "material": 1,
          "mode": 4
        }
      ]
    },
    {
      "name": "Object_2",
      "primitives": [
        {
          "attributes": {
            "NORMAL": 9,
            "POSITION": 8,
            "TEXCOORD_0": 10
          },
          "indices": 11,
          "material": 2,
          "mode": 4
        }
      ]
    },
    {
      "name": "Object_3",
      "primitives": [
        {
          "attributes": {
            "NORMAL": 13,
            "POSITION": 12,
            "TEXCOORD_0": 14
          },
          "indices": 15,
          "material": 3,
          "mode": 4
        }
      ]
    },
    {
      "name": "Object_4",
      "primitives": [
        {
          "attributes": {
            "NORMAL": 17,
            "POSITION": 16,
            "TEXCOORD_0": 18
          },
          "indices": 19,
          "material": 4,
          "mode": 4
        }
      ]
    }
  ],
  "nodes": [
    {
      "children": [
        1
      ],
      "matrix": [
        0.2685779631137848,
        0.0,
        0.0,
        0.0,
        0.0,
        5.963628771116998e-17,
        -0.2685779631137848,
        0.0,
        0.0,
        0.2685779631137848,
        5.963628771116998e-17,
        0.0,
        0.0,
        0.0,
        0.0,
        1.0
      ],
      "name": "Sketchfab_model"
    },
    {
      "children": [
        2
      ],
      "name": "root"
    },
    {
      "children": [
        3
      ],
      "matrix": [
        1.0,
        0.0,
        0.0,
        0.0,
        0.0,
        2.220446049250313e-16,
        1.0,
        0.0,
        0.0,
        -1.0,
        2.220446049250313e-16,
        0.0,
        0.0,
        0.0,
        0.0,
        1.0
      ],
      "name": "GLTF_SceneRootNode"
    },
    {
      "children": [
        4,
        5,
        6,
        7,
        8
      ],
      "matrix": [
        0.3146556615829468,
        0.0,
        0.0,
        0.0,
        0.0,
        0.0,
        0.3146556615829468,
        0.0,
        0.0,
        -0.3146556615829468,
        0.0,
        0.0,
        0.0,
        3.859067440032959,
        0.0,
        1.0
      ],
      "name": "Wings Centre.001_0"
    },
    {
      "mesh": 0,
      "name": "Object_4"
    },
    {
      "mesh": 1,
      "name": "Object_5"
    },
    {
      "mesh": 2,
      "name": "Object_6"
    },
    {
      "mesh": 3,
      "name": "Object_7"
    },
    {
      "mesh": 4,
      "name": "Object_8"
    }
  ],
  "scene": 0,
  "scenes": [
    {
      "name": "Sketchfab_Scene",
      "nodes": [
        0
      ]
    }
  ]
}
