{
  "accessors": [
    {
      "bufferView": 2,
      "componentType": 5126,
      "count": 1812,
      "max": [
        -9.648329734802246,
        38.440101623535156,
        2.506649971008301
      ],
      "min": [
        -27.854400634765625,
        -36.74700164794922,
        0.45368000864982605
      ],
      "type": "VEC3"
    },
    {
      "bufferView": 2,
      "byteOffset": 21744,
      "componentType": 5126,
      "count": 1812,
      "max": [
        1.0,
        1.0,
        1.0
      ],
      "min": [
        -1.0,
        -1.0,
        -1.0
      ],
      "type": "VEC3"
    },
    {
      "bufferView": 3,
      "componentType": 5126,
      "count": 1812,
      "max": [
        1.0,
        1.0,
        0.9965367913246155,
        1.0
      ],
      "min": [
        -1.0,
        -0.9999998807907104,
        -1.0,
        1.0
      ],
      "type": "VEC4"
    },
    {
      "bufferView": 1,
      "componentType": 5126,
      "count": 1812,
      "max": [
        0.994683027267456,
        0.9994999766349792
      ],
      "min": [
        0.0005000000237487257,
        0.0005000000237487257
      ],
      "type": "VEC2"
    },
    {
      "bufferView": 0,
      "componentType": 5125,
      "count": 7644,
      "type": "SCALAR"
    }
  ],
  "asset": {
    "extras": {
      "author": "Aren Boada (https://sketchfab.com/aren.boada)",
      "license": "CC-BY-4.0 (http://creativecommons.org/licenses/by/4.0/)",
      "source": "https://sketchfab.com/3d-models/bastard-sword-816606ecb4b84974ae8f15907ffb7bed",
      "title": "Bastard sword"
    },
    "generator": "Sketchfab-11.29.0",
    "version": "2.0"
  },
  "bufferViews": [
    {
      "buffer": 0,
      "byteLength": 30576,
      "name": "floatBufferViews",
      "target": 34963
    },
    {
      "buffer": 0,
      "byteLength": 14496,
      "byteOffset": 30576,
      "byteStride": 8,
      "name": "floatBufferViews",
      "target": 34962
    },
    {
      "buffer": 0,
      "byteLength": 43488,
      "byteOffset": 45072,
      "byteStride": 12,
      "name": "floatBufferViews",
      "target": 34962
    },
    {
      "buffer": 0,
      "byteLength": 28992,
      "byteOffset": 88560,
      "byteStride": 16,
      "name": "floatBufferViews",
      "target": 34962
    }
  ],
  "buffers": [
    {
      "byteLength": 117552,
      "uri": "scene.bin"
    }
  ],
  "images": [
    {
      "uri": "textures/wire_119119119_baseColor.jpeg"
    },
    {
      "uri": "textures/wire_119119119_metallicRoughness.png"
    },
    {
      "uri": "textures/wire_119119119_normal.png"
    }
  ],
  "materials": [
    {
      "doubleSided": true,
      "name": "wire_119119119",
      "normalTexture": {
        "index": 2
      },
      "occlusionTexture": {
        "index": 1
      },
      "pbrMetallicRoughness": {
        "baseColorTexture": {
          "index": 0
        },
        "metallicRoughnessTexture": {
          "index": 1
        }
      }
    }
  ],
  "meshes": [
    {
      "name": "Object_0",
      "primitives": [
        {
          "attributes": {
            "NORMAL": 1,
            "POSITION": 0,
            "TANGENT": 2,
            "TEXCOORD_0": 3
          },
          "indices": 4,
          "material": 0,
          "mode": 4
        }
      ]
    }
  ],
  "nodes": [
    {
      "children": [
        1
      ],
      "matrix": [
        0.018979566171765327,
        0.0,
        0.0,
        0.0,
        0.0,
        4.214310272258121e-18,
        -0.018979566171765327,
        0.0,
        0.0,
        0.018979566171765327,
        4.214310272258121e-18,
        0.0,
        0.0,
        0.0,
        0.0,
        1.0
      ],
      "name": "Sketchfab_model"
    },
    {
      "children": [
        2
      ],
      "name": "b1b8a1aeb2ff4dc0b24d0722a45b4c44.obj.cleaner.materialmerger.gles"
    },
    {
      "mesh": 0,
      "name": "Object_2"
    }
  ],
  "samplers": [
    {
      "magFilter": 9729,
      "minFilter": 9987,
      "wrapS": 10497,
      "wrapT": 10497
    }
  ],
  "scene": 0,
  "scenes": [
    {
      "name": "Sketchfab_Scene",
      "nodes": [
        0
      ]
    }
  ],
  "textures": [
    {
      "sampler": 0,
      "source": 0
    },
    {
      "sampler": 0,
      "source": 1
    },
    {
      "sampler": 0,
      "source": 2
    }
  ]
}
