{
  "accessors": [
    {
      "bufferView": 2,
      "componentType": 5126,
      "count": 49,
      "max": [
        0.018856693059206009,
        0.38639941811561584,
        0.1269029974937439
      ],
      "min": [
        -0.018856730312108994,
        0.34868597984313965,
        0.11671829223632812
      ],
      "type": "VEC3"
    },
    {
      "bufferView": 2,
      "byteOffset": 588,
      "componentType": 5126,
      "count": 49,
      "max": [
        0.27598452568054199,
        0.27600669860839844,
        1
      ],
      "min": [
        -0.27598187327384949,
        -0.27598950266838074,
        0.96115124225616455
      ],
      "type": "VEC3"
    },
    {
      "bufferView": 3,
      "componentType": 5126,
      "count": 49,
      "max": [
        0.0089272754266858101,
        1,
        0.27598950266838074,
        1
      ],
      "min": [
        -0.004755598958581686,
        0.96115571260452271,
        -0.27600666880607605,
        1
      ],
      "type": "VEC4"
    },
    {
      "bufferView": 1,
      "componentType": 5126,
      "count": 49,
      "max": [
        0.96366924047470093,
        0.97203421592712402
      ],
      "min": [
        0.030592165887355804,
        0.038958072662353516
      ],
      "type": "VEC2"
    },
    {
      "bufferView": 0,
      "componentType": 5125,
      "count": 216,
      "max": [
        48
      ],
      "min": [
        0
      ],
      "type": "SCALAR"
    },
    {
      "bufferView": 2,
      "byteOffset": 1176,
      "componentType": 5126,
      "count": 1688,
      "max": [
        0.079739145934581757,
        0.68296432495117188,
        0.14997412264347076
      ],
      "min": [
        -0.078195542097091675,
        0.26517355442047119,
        -0.17845650017261505
      ],
      "type": "VEC3"
    },
    {
      "bufferView": 2,
      "byteOffset": 21432,
      "componentType": 5126,
      "count": 1688,
      "max": [
        1,
        1,
        1
      ],
      "min": [
        -1,
        -1,
        -1
      ],
      "type": "VEC3"
    },
    {
      "bufferView": 3,
      "byteOffset": 784,
      "componentType": 5126,
      "count": 1688,
      "max": [
        1,
        1,
        1,
        1
      ],
      "min": [
        -1,
        -1,
        -1,
        -1
      ],
      "type": "VEC4"
    },
    {
      "bufferView": 1,
      "byteOffset": 392,
      "componentType": 5126,
      "count": 1688,
      "max": [
        1.2424530982971191,
        -0.0016627311706542969
      ],
      "min": [
        -0.11543750762939453,
        -1.9975056648254395
      ],
      "type": "VEC2"
    },
    {
      "bufferView": 1,
      "byteOffset": 13896,
      "componentType": 5126,
      "count": 1688,
      "max": [
        1.2424530982971191,
        -0.0016627311706542969
      ],
      "min": [
        -0.11543750762939453,
        -1.9975056648254395
      ],
      "type": "VEC2"
    },
    {
      "bufferView": 0,
      "byteOffset": 864,
      "componentType": 5125,
      "count": 5244,
      "max": [
        1687
      ],
      "min": [
        0
      ],
      "type": "SCALAR"
    },
    {
      "bufferView": 2,
      "byteOffset": 41688,
      "componentType": 5126,
      "count": 3480,
      "max": [
        0.14158353209495544,
        0.58166724443435669,
        0.24996761977672577
      ],
      "min": [
        -0.14158633351325989,
        5.9276037063682452e-05,
        -0.22519099712371826
      ],
      "type": "VEC3"
    },
    {
      "bufferView": 2,
      "byteOffset": 83448,
      "componentType": 5126,
      "count": 3480,
      "max": [
        0.99993884563446045,
        1,
        1
      ],
      "min": [
        -0.99997735023498535,
        -1,
        -1
      ],
      "type": "VEC3"
    },
    {
      "bufferView": 3,
      "byteOffset": 27792,
      "componentType": 5126,
      "count": 3480,
      "max": [
        1,
        0.98401099443435669,
        1,
        1
      ],
      "min": [
        -1,
        -1,
        -1,
        -1
      ],
      "type": "VEC4"
    },
    {
      "bufferView": 1,
      "byteOffset": 27400,
      "componentType": 5126,
      "count": 3480,
      "max": [
        1.99900221824646,
        0.99800354242324829
      ],
      "min": [
        0.0027513504028320312,
        0.001323699951171875
      ],
      "type": "VEC2"
    },
    {
      "bufferView": 1,
      "byteOffset": 55240,
      "componentType": 5126,
      "count": 3480,
      "max": [
        1.99900221824646,
        0.99800354242324829
      ],
      "min": [
        0.0027513504028320312,
        0.001323699951171875
      ],
      "type": "VEC2"
    },
    {
      "bufferView": 0,
      "byteOffset": 21840,
      "componentType": 5125,
      "count": 13926,
      "max": [
        3479
      ],
      "min": [
        0
      ],
      "type": "SCALAR"
    },
    {
      "bufferView": 2,
      "byteOffset": 125208,
      "componentType": 5126,
      "count": 2834,
      "max": [
        0.13740725815296173,
        0.57181370258331299,
        0.1922658234834671
      ],
      "min": [
        -0.13741004467010498,
        0.15869662165641785,
        -0.11620774865150452
      ],
      "type": "VEC3"
    },
    {
      "bufferView": 2,
      "byteOffset": 159216,
      "componentType": 5126,
      "count": 2834,
      "max": [
        1,
        1,
        1
      ],
      "min": [
        -1,
        -1,
        -1
      ],
      "type": "VEC3"
    },
    {
      "bufferView": 3,
      "byteOffset": 83472,
      "componentType": 5126,
      "count": 2834,
      "max": [
        1,
        1,
        1,
        1
      ],
      "min": [
        -1,
        -1,
        -1,
        -1
      ],
      "type": "VEC4"
    },
    {
      "bufferView": 1,
      "byteOffset": 83080,
      "componentType": 5126,
      "count": 2834,
      "max": [
        1.9966456890106201,
        0.8239520788192749
      ],
      "min": [
        0.0023975914809852839,
        -1.9979870319366455
      ],
      "type": "VEC2"
    },
    {
      "bufferView": 1,
      "byteOffset": 105752,
      "componentType": 5126,
      "count": 2834,
      "max": [
        1.9966456890106201,
        0.8239520788192749
      ],
      "min": [
        0.0023975914809852839,
        -1.9979870319366455
      ],
      "type": "VEC2"
    },
    {
      "bufferView": 0,
      "byteOffset": 77544,
      "componentType": 5125,
      "count": 8964,
      "max": [
        2833
      ],
      "min": [
        0
      ],
      "type": "SCALAR"
    }
  ],
  "asset": {
    "extras": {
      "author": "MayhemNexus (https://sketchfab.com/MayhemNexus)",
      "license": "CC-BY-4.0 (http://creativecommons.org/licenses/by/4.0/)",
      "source": "https://sketchfab.com/models/bd79096a944a40f489694d3a9bbc5e49",
      "title": "Turret"
    },
    "generator": "Sketchfab-4.28.3",
    "version": "2.0"
  },
  "bufferViews": [
    {
      "buffer": 0,
      "byteLength": 113400,
      "byteOffset": 0,
      "name": "floatBufferViews",
      "target": 34963
    },
    {
      "buffer": 0,
      "byteLength": 128424,
      "byteOffset": 113400,
      "byteStride": 8,
      "name": "floatBufferViews",
      "target": 34962
    },
    {
      "buffer": 0,
      "byteLength": 193224,
      "byteOffset": 241824,
      "byteStride": 12,
      "name": "floatBufferViews",
      "target": 34962
    },
    {
      "buffer": 0,
      "byteLength": 128816,
      "byteOffset": 435048,
      "byteStride": 16,
      "name": "floatBufferViews",
      "target": 34962
    }
  ],
  "buffers": [
    {
      "byteLength": 563864,
      "uri": "scene.bin"
    }
  ],
  "images": [
    {
      "uri": "textures/modelsnpcsturretturret_frame02_baseColor.png"
    },
    {
      "uri": "textures/modelsnpcsturretturret_casing_baseColor.png"
    },
    {
      "uri": "textures/modelsnpcsturretturret_frame01_baseColor.png"
    },
    {
      "uri": "textures/modelsnpcsturretturret_eye_emissive.png"
    },
    {
      "uri": "textures/modelsnpcsturretturret_eye_baseColor.png"
    }
  ],
  "materials": [
    {
      "doubleSided": true,
      "emissiveFactor": [
        1,
        1,
        1
      ],
      "emissiveTexture": {
        "index": 3,
        "texCoord": 0
      },
      "name": "modelsnpcsturretturret_eye",
      "pbrMetallicRoughness": {
        "baseColorFactor": [
          1,
          1,
          1,
          1
        ],
        "baseColorTexture": {
          "index": 4,
          "texCoord": 0
        },
        "metallicFactor": 0,
        "roughnessFactor": 0.83082059780000006
      }
    },
    {
      "doubleSided": true,
      "name": "modelsnpcsturretturret_frame01",
      "pbrMetallicRoughness": {
        "baseColorFactor": [
          1,
          1,
          1,
          1
        ],
        "baseColorTexture": {
          "index": 2,
          "texCoord": 0
        },
        "metallicFactor": 1,
        "roughnessFactor": 0.83082059780000006
      }
    },
    {
      "doubleSided": true,
      "name": "modelsnpcsturretturret_casing",
      "pbrMetallicRoughness": {
        "baseColorFactor": [
          1,
          1,
          1,
          1
        ],
        "baseColorTexture": {
          "index": 1,
          "texCoord": 0
        },
        "metallicFactor": 1,
        "roughnessFactor": 0.83082059780000006
      }
    },
    {
      "doubleSided": true,
      "emissiveFactor": [
        0,
        0,
        0
      ],
      "name": "modelsnpcsturretturret_frame02",
      "pbrMetallicRoughness": {
        "baseColorFactor": [
          1,
          1,
          1,
          1
        ],
        "baseColorTexture": {
          "index": 0,
          "texCoord": 0
        },
        "metallicFactor": 1,
        "roughnessFactor": 0.83082059780000006
      }
    }
  ],
  "meshes": [
    {
      "name": "mesh3_models/npcs/turret/turret_eye_0",
      "primitives": [
        {
          "attributes": {
            "NORMAL": 1,
            "POSITION": 0,
            "TANGENT": 2,
            "TEXCOORD_0": 3
          },
          "indices": 4,
          "material": 0,
          "mode": 4
        }
      ]
    },
    {
      "name": "mesh1_models/npcs/turret/turret_frame01_0",
      "primitives": [
        {
          "attributes": {
            "NORMAL": 6,
            "POSITION": 5,
            "TANGENT": 7,
            "TEXCOORD_0": 8,
            "TEXCOORD_1": 9
          },
          "indices": 10,
          "material": 1,
          "mode": 4
        }
      ]
    },
    {
      "name": "mesh2_models/npcs/turret/turret_casing_0",
      "primitives": [
        {
          "attributes": {
            "NORMAL": 12,
            "POSITION": 11,
            "TANGENT": 13,
            "TEXCOORD_0": 14,
            "TEXCOORD_1": 15
          },
          "indices": 16,
          "material": 2,
          "mode": 4
        }
      ]
    },
    {
      "name": "mesh0_models/npcs/turret/turret_frame02_0",
      "primitives": [
        {
          "attributes": {
            "NORMAL": 18,
            "POSITION": 17,
            "TANGENT": 19,
            "TEXCOORD_0": 20,
            "TEXCOORD_1": 21
          },
          "indices": 22,
          "material": 3,
          "mode": 4
        }
      ]
    }
  ],
  "nodes": [
    {
      "children": [
        1
      ],
      "name": "RootNode (gltf orientation matrix)",
      "rotation": [
        -0.70710678118654746,
        -0,
        -0,
        0.70710678118654757
      ]
    },
    {
      "children": [
        2
      ],
      "name": "RootNode (model correction matrix)"
    },
    {
      "children": [
        3
      ],
      "matrix": [
        1,
        0,
        0,
        0,
        0,
        0,
        1,
        0,
        0,
        -1,
        0,
        0,
        0,
        0,
        0,
        1
      ],
      "name": "c3d8fb68ad9148a796324d3679dd07b2.fbx"
    },
    {
      "children": [
        4,
        6,
        8,
        10
      ],
      "name": "RootNode"
    },
    {
      "children": [
        5
      ],
      "matrix": [
        100,
        2.7890437244446065e-29,
        -6.6174441115633162e-22,
        0,
        7.9921406074356572e-29,
        99.999999999998664,
        1.6292067073209114e-05,
        0,
        6.6174441115632739e-22,
        -1.6292067073209114e-05,
        99.999999999998664,
        0,
        2.8490347559438634e-13,
        -6.0396132539608516e-13,
        -9.8397786754128253e-20,
        1
      ],
      "name": "mesh3"
    },
    {
      "mesh": 0,
      "name": "mesh3_models/npcs/turret/turret_eye_0"
    },
    {
      "children": [
        7
      ],
      "matrix": [
        100,
        1.1978853603087538e-19,
        -7.1054265105680546e-13,
        0,
        -4.0264507369408435e-21,
        99.999999999998664,
        1.6292067073209114e-05,
        0,
        7.1054265105681556e-13,
        -1.6292067073209114e-05,
        99.999999999998664,
        0,
        1.4210841162674848e-14,
        -2.48689669524833e-14,
        -1.8429702208777599e-13,
        1
      ],
      "name": "mesh1"
    },
    {
      "mesh": 1,
      "name": "mesh1_models/npcs/turret/turret_frame01_0"
    },
    {
      "children": [
        9
      ],
      "matrix": [
        100,
        1.1978853603087538e-19,
        -7.1054265105680546e-13,
        0,
        -4.0264507369408435e-21,
        99.999999999998664,
        1.6292067073209114e-05,
        0,
        7.1054265105681556e-13,
        -1.6292067073209114e-05,
        99.999999999998664,
        0,
        -8.787966827763366e-21,
        -8.5265114738684866e-14,
        -5.6843432413335171e-14,
        1
      ],
      "name": "mesh2"
    },
    {
      "mesh": 2,
      "name": "mesh2_models/npcs/turret/turret_casing_0"
    },
    {
      "children": [
        11
      ],
      "matrix": [
        100,
        1.1978853603087538e-19,
        -7.1054265105680546e-13,
        0,
        -4.0264507369408435e-21,
        99.999999999998664,
        1.6292067073209114e-05,
        0,
        7.1054265105681556e-13,
        -1.6292067073209114e-05,
        99.999999999998664,
        0,
        1.4210841162674848e-14,
        -2.48689669524833e-14,
        -1.8429702208777599e-13,
        1
      ],
      "name": "mesh0"
    },
    {
      "mesh": 3,
      "name": "mesh0_models/npcs/turret/turret_frame02_0"
    }
  ],
  "samplers": [
    {
      "magFilter": 9729,
      "minFilter": 9987,
      "wrapS": 10497,
      "wrapT": 10497
    }
  ],
  "scene": 0,
  "scenes": [
    {
      "name": "OSG_Scene",
      "nodes": [
        0
      ]
    }
  ],
  "textures": [
    {
      "sampler": 0,
      "source": 0
    },
    {
      "sampler": 0,
      "source": 1
    },
    {
      "sampler": 0,
      "source": 2
    },
    {
      "sampler": 0,
      "source": 3
    },
    {
      "sampler": 0,
      "source": 4
    }
  ]
}

