{
  "accessors": [
    {
      "bufferView": 2,
      "componentType": 5126,
      "count": 8956,
      "max": [
        0.14339099824428558,
        0.14339099824428558,
        1.172611951828003
      ],
      "min": [
        -0.14339099824428558,
        -0.14339099824428558,
        0.6982970237731934
      ],
      "type": "VEC3"
    },
    {
      "bufferView": 2,
      "byteOffset": 107472,
      "componentType": 5126,
      "count": 8956,
      "max": [
        1.0,
        1.0,
        1.0
      ],
      "min": [
        -1.0,
        -1.0,
        -1.0
      ],
      "type": "VEC3"
    },
    {
      "bufferView": 1,
      "componentType": 5126,
      "count": 8956,
      "max": [
        1.0,
        1.0
      ],
      "min": [
        0.0,
        0.0
      ],
      "type": "VEC2"
    },
    {
      "bufferView": 0,
      "componentType": 5125,
      "count": 50112,
      "type": "SCALAR"
    },
    {
      "bufferView": 2,
      "byteOffset": 214944,
      "componentType": 5126,
      "count": 8500,
      "max": [
        0.9092550277709961,
        0.49882200360298157,
        0.7579529881477356
      ],
      "min": [
        -0.49882200360298157,
        -0.49882200360298157,
        -1.0012660026550293
      ],
      "type": "VEC3"
    },
    {
      "bufferView": 2,
      "byteOffset": 316944,
      "componentType": 5126,
      "count": 8500,
      "max": [
        1.0,
        1.0,
        0.9999996423721313
      ],
      "min": [
        -1.0,
        -1.0,
        -0.9999996423721313
      ],
      "type": "VEC3"
    },
    {
      "bufferView": 1,
      "byteOffset": 71648,
      "componentType": 5126,
      "count": 8500,
      "max": [
        1.0,
        1.0
      ],
      "min": [
        0.0,
        0.0
      ],
      "type": "VEC2"
    },
    {
      "bufferView": 0,
      "byteOffset": 200448,
      "componentType": 5125,
      "count": 48384,
      "type": "SCALAR"
    },
    {
      "bufferView": 2,
      "byteOffset": 418944,
      "componentType": 5126,
      "count": 7875,
      "max": [
        0.7190549969673157,
        0.018577000126242638,
        0.7579529881477356
      ],
      "min": [
        -0.7190539836883545,
        -0.7190549969673157,
        -1.0012660026550293
      ],
      "type": "VEC3"
    },
    {
      "bufferView": 2,
      "byteOffset": 513444,
      "componentType": 5126,
      "count": 7875,
      "max": [
        0.9999449253082275,
        1.0,
        0.9999998807907104
      ],
      "min": [
        -0.9999469518661499,
        -1.0,
        -0.9999997615814209
      ],
      "type": "VEC3"
    },
    {
      "bufferView": 1,
      "byteOffset": 139648,
      "componentType": 5126,
      "count": 7875,
      "max": [
        1.0,
        1.0
      ],
      "min": [
        0.0,
        0.0
      ],
      "type": "VEC2"
    },
    {
      "bufferView": 0,
      "byteOffset": 393984,
      "componentType": 5125,
      "count": 44928,
      "type": "SCALAR"
    },
    {
      "bufferView": 2,
      "byteOffset": 607944,
      "componentType": 5126,
      "count": 9075,
      "max": [
        0.7190549969673157,
        0.7190549969673157,
        0.7579529881477356
      ],
      "min": [
        -0.7190549969673157,
        -0.9092550277709961,
        -0.6199489831924438
      ],
      "type": "VEC3"
    },
    {
      "bufferView": 2,
      "byteOffset": 716844,
      "componentType": 5126,
      "count": 9075,
      "max": [
        1.0,
        0.9999969005584717,
        0.9999998807907104
      ],
      "min": [
        -1.0,
        -0.9999971389770508,
        -0.9999997615814209
      ],
      "type": "VEC3"
    },
    {
      "bufferView": 1,
      "byteOffset": 202648,
      "componentType": 5126,
      "count": 9075,
      "max": [
        1.0,
        1.0
      ],
      "min": [
        0.0,
        0.0
      ],
      "type": "VEC2"
    },
    {
      "bufferView": 0,
      "byteOffset": 573696,
      "componentType": 5125,
      "count": 51840,
      "type": "SCALAR"
    },
    {
      "bufferView": 2,
      "byteOffset": 825744,
      "componentType": 5126,
      "count": 9890,
      "max": [
        0.7839490175247192,
        0.9092550277709961,
        0.7579529881477356
      ],
      "min": [
        -0.9092550277709961,
        -0.7839490175247192,
        -0.6199489831924438
      ],
      "type": "VEC3"
    },
    {
      "bufferView": 2,
      "byteOffset": 944424,
      "componentType": 5126,
      "count": 9890,
      "max": [
        1.0,
        1.0,
        1.0
      ],
      "min": [
        -1.0,
        -1.0,
        -1.0
      ],
      "type": "VEC3"
    },
    {
      "bufferView": 1,
      "byteOffset": 275248,
      "componentType": 5126,
      "count": 9890,
      "max": [
        1.0,
        1.0
      ],
      "min": [
        0.0,
        0.0
      ],
      "type": "VEC2"
    },
    {
      "bufferView": 0,
      "byteOffset": 781056,
      "componentType": 5125,
      "count": 49104,
      "type": "SCALAR"
    },
    {
      "bufferView": 2,
      "byteOffset": 1063104,
      "componentType": 5126,
      "count": 784,
      "max": [
        0.7584779858589172,
        0.7584779858589172,
        0.19605399668216705
      ],
      "min": [
        -0.7584779858589172,
        -0.7584779858589172,
        -0.13729199767112732
      ],
      "type": "VEC3"
    },
    {
      "bufferView": 2,
      "byteOffset": 1072512,
      "componentType": 5126,
      "count": 784,
      "max": [
        0.99946528673172,
        0.99946528673172,
        1.0
      ],
      "min": [
        -0.99946528673172,
        -0.99946528673172,
        0.0
      ],
      "type": "VEC3"
    },
    {
      "bufferView": 1,
      "byteOffset": 354368,
      "componentType": 5126,
      "count": 784,
      "max": [
        0.8611800074577332,
        0.5933589935302734
      ],
      "min": [
        0.745527982711792,
        0.43462300300598145
      ],
      "type": "VEC2"
    },
    {
      "bufferView": 0,
      "byteOffset": 977472,
      "componentType": 5125,
      "count": 2256,
      "type": "SCALAR"
    }
  ],
  "asset": {
    "extras": {
      "author": "Victor Hernandez (https://sketchfab.com/Victor.Hernandez)",
      "license": "CC-BY-4.0 (http://creativecommons.org/licenses/by/4.0/)",
      "source": "https://sketchfab.com/3d-models/chandelier-401d632337d44318bf43a25c1907e137",
      "title": "Chandelier"
    },
    "generator": "Sketchfab-11.25.0",
    "version": "2.0"
  },
  "bufferViews": [
    {
      "buffer": 0,
      "byteLength": 986496,
      "name": "floatBufferViews",
      "target": 34963
    },
    {
      "buffer": 0,
      "byteLength": 360640,
      "byteOffset": 986496,
      "byteStride": 8,
      "name": "floatBufferViews",
      "target": 34962
    },
    {
      "buffer": 0,
      "byteLength": 1081920,
      "byteOffset": 1347136,
      "byteStride": 12,
      "name": "floatBufferViews",
      "target": 34962
    }
  ],
  "buffers": [
    {
      "byteLength": 2429056,
      "uri": "scene.bin"
    }
  ],
  "images": [
    {
      "uri": "textures/Material.002_baseColor.png"
    }
  ],
  "materials": [
    {
      "doubleSided": true,
      "name": "Material.001",
      "pbrMetallicRoughness": {
        "baseColorFactor": [
          0.00637,
          0.00637,
          0.00637,
          1.0
        ],
        "metallicFactor": 0.9,
        "roughnessFactor": 0.7
      }
    },
    {
      "doubleSided": true,
      "emissiveFactor": [
        0.7131516963882841,
        0.0967437028742038,
        0.0
      ],
      "name": "Material.002",
      "pbrMetallicRoughness": {
        "baseColorTexture": {
          "index": 0
        },
        "metallicFactor": 0.0
      }
    }
  ],
  "meshes": [
    {
      "name": "Object_0",
      "primitives": [
        {
          "attributes": {
            "NORMAL": 1,
            "POSITION": 0,
            "TEXCOORD_0": 2
          },
          "indices": 3,
          "material": 0,
          "mode": 4
        }
      ]
    },
    {
      "name": "Object_1",
      "primitives": [
        {
          "attributes": {
            "NORMAL": 5,
            "POSITION": 4,
            "TEXCOORD_0": 6
          },
          "indices": 7,
          "material": 0,
          "mode": 4
        }
      ]
    },
    {
      "name": "Object_2",
      "primitives": [
        {
          "attributes": {
            "NORMAL": 9,
            "POSITION": 8,
            "TEXCOORD_0": 10
          },
          "indices": 11,
          "material": 0,
          "mode": 4
        }
      ]
    },
    {
      "name": "Object_3",
      "primitives": [
        {
          "attributes": {
            "NORMAL": 13,
            "POSITION": 12,
            "TEXCOORD_0": 14
          },
          "indices": 15,
          "material": 0,
          "mode": 4
        }
      ]
    },
    {
      "name": "Object_4",
      "primitives": [
        {
          "attributes": {
            "NORMAL": 17,
            "POSITION": 16,
            "TEXCOORD_0": 18
          },
          "indices": 19,
          "material": 0,
          "mode": 4
        }
      ]
    },
    {
      "name": "Object_5",
      "primitives": [
        {
          "attributes": {
            "NORMAL": 21,
            "POSITION": 20,
            "TEXCOORD_0": 22
          },
          "indices": 23,
          "material": 1,
          "mode": 4
        }
      ]
    }
  ],
  "nodes": [
    {
      "children": [
        1
      ],
      "matrix": [
        1.0,
        0.0,
        0.0,
        0.0,
        0.0,
        2.220446049250313e-16,
        -1.0,
        0.0,
        0.0,
        1.0,
        2.220446049250313e-16,
        0.0,
        0.0,
        0.0,
        0.0,
        1.0
      ],
      "name": "Sketchfab_model"
    },
    {
      "children": [
        2,
        3,
        4,
        5,
        6,
        7
      ],
      "name": "Model.obj.cleaner.materialmerger.gles"
    },
    {
      "mesh": 0,
      "name": "Object_2"
    },
    {
      "mesh": 1,
      "name": "Object_3"
    },
    {
      "mesh": 2,
      "name": "Object_4"
    },
    {
      "mesh": 3,
      "name": "Object_5"
    },
    {
      "mesh": 4,
      "name": "Object_6"
    },
    {
      "mesh": 5,
      "name": "Object_7"
    }
  ],
  "samplers": [
    {
      "magFilter": 9729,
      "minFilter": 9987,
      "wrapS": 10497,
      "wrapT": 10497
    }
  ],
  "scene": 0,
  "scenes": [
    {
      "name": "Sketchfab_Scene",
      "nodes": [
        0
      ]
    }
  ],
  "textures": [
    {
      "sampler": 0,
      "source": 0
    }
  ]
}
